<svg width="93" height="16" viewBox="0 0 93 16" fill="none" xmlns="http://www.w3.org/2000/svg">
<path d="M67.9052 15.9482C66.7115 15.7978 65.5078 15.6473 64.3141 15.4868C64.0132 15.4467 63.7123 15.4166 63.4113 15.3865C62.8095 15.3263 62.2177 15.1959 61.6359 15.0354C61.345 14.9552 61.0541 14.8649 60.7632 14.7546C60.7632 14.7345 60.7632 14.7245 60.7732 14.7044C61.3851 14.6442 61.987 14.6843 62.5988 14.7345C63.2007 14.7947 63.7825 14.9552 64.3743 15.0755C64.8157 15.1658 65.7084 15.3564 66.1498 15.4567C66.7316 15.5972 67.3234 15.7376 67.9152 15.8881C67.9152 15.9181 67.9152 15.9282 67.9052 15.9482Z" fill="#0C3557"/>
<path d="M25.5244 15.7978C26.698 15.5069 27.8716 15.226 29.0553 14.9853C29.3462 14.9251 29.6471 14.8549 29.938 14.7947C30.5298 14.6643 31.1317 14.6041 31.7335 14.5941C32.0345 14.584 32.3454 14.584 32.6463 14.6242C32.6463 14.6442 32.6463 14.6543 32.6564 14.6743C32.0846 14.895 31.4928 15.0455 30.901 15.1658C30.3091 15.2962 29.7073 15.3263 29.1155 15.3965C28.6741 15.4567 27.7713 15.5771 27.3199 15.6273C26.7181 15.6975 26.1263 15.7777 25.5244 15.858C25.5244 15.8279 25.5244 15.8178 25.5244 15.7978Z" fill="#0C3557"/>
<path d="M9.14403 6.48917C9.24434 7.12112 9.11394 7.67282 8.77289 8.1543C9.25437 8.50538 9.53524 8.99689 9.63554 9.62884C9.6857 9.9398 9.70576 10.1003 9.75592 10.4112C9.82613 10.8426 9.78601 11.2338 9.63554 11.6049C9.49511 11.9761 9.2644 12.287 8.94341 12.5278C8.63246 12.7685 8.25128 12.929 7.81995 12.9992C5.90406 13.3202 3.98816 13.6613 2.07226 14.0224L1.00898 8.42513C2.69417 8.10414 4.36933 7.80322 6.05452 7.51232C6.26517 7.4722 6.43569 7.38192 6.55606 7.22143C6.67643 7.06093 6.71656 6.88038 6.67643 6.66973C6.64634 6.45908 6.54603 6.29858 6.38554 6.18825C6.22504 6.07791 6.03446 6.03778 5.81378 6.07791C4.11856 6.3688 2.42334 6.66973 0.738149 6.99072C0.577655 6.15815 0.497408 5.73686 0.336914 4.90429C2.32303 4.53315 4.30914 4.17204 6.30529 3.84102C6.75668 3.76077 7.18801 3.79086 7.56918 3.92127C7.95036 4.05167 8.28138 4.27235 8.53215 4.5833C8.79295 4.89426 8.95344 5.25537 9.01363 5.6867C9.07381 6.01772 9.10391 6.16818 9.14403 6.48917ZM6.65637 11.0532C6.86702 11.0131 7.02751 10.9228 7.14789 10.7623C7.25822 10.6018 7.29835 10.4213 7.26826 10.2106C7.23816 9.99998 7.13785 9.83949 6.97736 9.72915C6.81687 9.61881 6.62628 9.57869 6.41563 9.61881C5.37242 9.79937 4.85081 9.88964 3.8076 10.0702C3.90791 10.642 3.95806 10.9329 4.0684 11.5046C5.10158 11.314 5.62319 11.2237 6.65637 11.0532Z" fill="#0C3557"/>
<path d="M12.7955 2.86804C13.1265 5.2253 13.4475 7.59259 13.7785 9.94985C15.1528 9.75926 16.537 9.5787 17.9113 9.41821C18.0116 10.2608 18.0617 10.6821 18.162 11.5247C15.9954 11.7955 13.8387 12.0764 11.6821 12.3974C11.2307 9.33796 10.7693 6.27854 10.3179 3.22915C11.3109 3.07869 11.8024 3.00847 12.7955 2.86804Z" fill="#0C3557"/>
<path d="M27.4608 8.29473C27.4909 8.72605 27.4307 9.12729 27.2501 9.4884C27.0796 9.84951 26.8288 10.1504 26.4878 10.3711C26.1568 10.6018 25.7756 10.7322 25.3342 10.7724C24.1706 10.8727 22.997 10.993 21.8335 11.1134C21.4021 11.1636 21.0009 11.1034 20.6297 10.9429C20.2586 10.7824 19.9577 10.5416 19.7169 10.2207C19.4762 9.89967 19.3358 9.5185 19.2856 9.08717C19.0248 6.77003 18.754 4.46293 18.4932 2.1458C19.4862 2.03546 19.9777 1.97527 20.9708 1.87496C21.1814 3.93129 21.4021 5.99765 21.6128 8.05399C21.6429 8.32482 21.7532 8.5455 21.9538 8.69596C22.1544 8.85646 22.3851 8.91664 22.666 8.88655C23.2478 8.82636 23.5287 8.79627 24.1105 8.74612C24.3913 8.71602 24.602 8.61572 24.7725 8.4151C24.933 8.22451 25.0032 7.9938 24.9831 7.71294L24.4214 1.52388C25.4145 1.4336 25.906 1.39348 26.899 1.31323C27.0896 3.65043 27.2702 5.97759 27.4608 8.29473Z" fill="#0C3557"/>
<path d="M36.2978 0.761475C36.3379 1.60407 36.3479 2.0354 36.3881 2.87799C34.6527 2.95824 32.9174 3.04852 31.182 3.14883C31.2221 3.73062 31.2322 4.02151 31.2723 4.6033C32.8572 4.50299 34.4521 4.41272 36.037 4.35253C36.0771 5.19513 36.0871 5.62645 36.1273 6.46905C34.5524 6.53926 32.9776 6.61951 31.4027 6.71982C31.4428 7.30161 31.4529 7.59251 31.493 8.1743C33.1882 8.06396 34.8935 7.97368 36.5887 7.90346C36.6288 8.74606 36.6388 9.17739 36.679 10.02C34.1913 10.1303 31.7137 10.2708 29.236 10.4513C29.0154 7.37183 28.7846 4.28231 28.564 1.20283C31.1319 1.02228 33.7098 0.881845 36.2978 0.761475Z" fill="#0C3557"/>
<path d="M46.2589 7.53238C46.2589 7.96371 46.1585 8.35491 45.9579 8.70599C45.7573 9.05707 45.4865 9.32791 45.1354 9.52852C44.7843 9.72914 44.3931 9.82945 43.9618 9.83948C42.7882 9.84951 41.6246 9.86957 40.451 9.89967C40.0196 9.9097 39.6184 9.81942 39.2673 9.63886C38.9062 9.44828 38.6254 9.18747 38.4147 8.84642C38.2041 8.50537 38.0837 8.11417 38.0737 7.68284C38.0135 6.11802 37.9633 4.56324 37.9031 2.99842C37.8831 2.56709 37.9733 2.17589 38.174 1.81477C38.3645 1.46369 38.6454 1.1728 39.0065 0.962148C39.3676 0.7515 39.7689 0.64116 40.2203 0.631129C41.434 0.601036 42.6578 0.580975 43.8715 0.560913C44.3229 0.560913 44.7342 0.65119 45.0953 0.851808C45.4564 1.05243 45.7473 1.32326 45.9579 1.67434C46.1686 2.02542 46.2689 2.41663 46.2689 2.84796C46.2689 3.35953 46.2689 3.62033 46.2689 4.13191C45.2859 4.13191 44.7943 4.13191 43.8113 4.15197C43.8113 3.94132 43.8113 3.84101 43.8013 3.64039C43.8013 3.36956 43.701 3.13885 43.5204 2.96833C43.3399 2.7978 43.0991 2.70752 42.8183 2.71755C42.2264 2.72758 41.9255 2.72758 41.3337 2.74765C41.0528 2.75768 40.8221 2.84795 40.6416 3.02851C40.461 3.20907 40.3808 3.43978 40.3808 3.71061C40.4108 4.76385 40.4309 5.80707 40.461 6.86031C40.471 7.13114 40.5613 7.36185 40.7419 7.53238C40.9224 7.7029 41.1531 7.78315 41.434 7.78315C42.0158 7.77312 42.3067 7.76309 42.8885 7.75306C43.1693 7.75306 43.39 7.65275 43.5706 7.48222C43.7511 7.30167 43.8314 7.08099 43.8314 6.80012C43.8314 6.58947 43.8314 6.48917 43.8214 6.27852C44.7943 6.26849 45.2758 6.26849 46.2488 6.25846C46.2589 6.76 46.2589 7.0208 46.2589 7.53238Z" fill="#0C3557"/>
<path d="M50.1608 9.84957C49.7294 9.83954 49.3382 9.73923 48.9872 9.53861C48.6361 9.33799 48.3652 9.05713 48.1646 8.70605C47.964 8.35496 47.8637 7.96376 47.8737 7.53243C47.8838 5.96761 47.8938 4.4028 47.9038 2.83798C47.9038 2.40665 48.0142 2.01545 48.2248 1.66436C48.4355 1.31328 48.7163 1.04245 49.0875 0.851863C49.4486 0.661276 49.8598 0.560967 50.3112 0.570998C51.525 0.59106 52.7487 0.621152 53.9625 0.651245C54.4139 0.661276 54.8151 0.781647 55.1762 0.992295C55.5373 1.20294 55.8082 1.48381 55.9987 1.84492C56.1893 2.20603 56.2796 2.59724 56.2596 3.02856C56.1994 4.59338 56.1392 6.14817 56.069 7.71299C56.0489 8.14432 55.9386 8.53552 55.7179 8.87657C55.5072 9.21762 55.2163 9.47842 54.8653 9.66901C54.5041 9.8596 54.1129 9.93984 53.6816 9.92981C52.498 9.89972 51.3244 9.86963 50.1608 9.84957ZM50.3012 6.79015C50.3012 7.06098 50.3815 7.29169 50.562 7.47225C50.7426 7.6528 50.9632 7.74308 51.2441 7.75311C51.8259 7.76314 52.1168 7.77317 52.6986 7.7832C52.9795 7.79324 53.2102 7.71299 53.3907 7.53243C53.5713 7.36191 53.6716 7.14123 53.6816 6.86036C53.7117 5.80712 53.7418 4.76391 53.7719 3.71066C53.7819 3.43983 53.6916 3.20912 53.5211 3.02856C53.3406 2.84801 53.1099 2.7477 52.829 2.7477C52.2372 2.72764 51.9362 2.72764 51.3444 2.71761C51.0636 2.70758 50.8228 2.79786 50.6423 2.96838C50.4517 3.13891 50.3614 3.36962 50.3614 3.64045C50.3313 4.69369 50.3112 5.74693 50.3012 6.79015Z" fill="#0C3557"/>
<path d="M60.4825 0.942047C60.3521 3.31937 60.2116 5.70672 60.0812 8.08404C61.4655 8.16428 62.8498 8.25456 64.234 8.35487C64.1738 9.19747 64.1437 9.61876 64.0735 10.4714C61.9068 10.3209 59.7301 10.1905 57.5635 10.0802C57.7039 6.99067 57.8544 3.90116 57.9948 0.811646C58.9879 0.8618 59.4894 0.891892 60.4825 0.942047Z" fill="#0C3557"/>
<path d="M68.6977 1.54392C68.4871 3.92124 68.2664 6.29856 68.0557 8.66585C69.44 8.78622 70.8243 8.92665 72.1985 9.07712C72.1082 9.91971 72.0581 10.341 71.9678 11.1836C69.8011 10.9529 67.6344 10.7523 65.4678 10.5717C65.7185 7.49224 65.9593 4.41275 66.2101 1.32324C67.2031 1.41352 67.7047 1.45364 68.6977 1.54392Z" fill="#0C3557"/>
<path d="M80.4138 2.88803C80.8652 2.94821 81.2564 3.10871 81.5874 3.34945C81.9184 3.60022 82.1592 3.91118 82.3197 4.28232C82.4701 4.65346 82.5203 5.0547 82.4501 5.48603C82.109 7.7831 81.768 10.0902 81.4269 12.3873C80.474 12.2468 80.0025 12.1766 79.0496 12.0462C79.19 11.0532 79.2602 10.5516 79.3906 9.54853C78.2772 9.39807 77.1638 9.24761 76.0504 9.10718C75.93 10.1103 75.8598 10.6018 75.7394 11.6049C74.7865 11.4845 74.315 11.4343 73.3521 11.324C73.6129 9.00687 73.8737 6.69976 74.1445 4.38263C74.1946 3.9513 74.3351 3.58016 74.5858 3.24914C74.8266 2.92815 75.1476 2.68741 75.5288 2.53695C75.9099 2.38648 76.3312 2.33633 76.7826 2.38648C77.9964 2.55701 79.2101 2.7175 80.4138 2.88803ZM76.3112 7.02075C77.4346 7.16118 78.5581 7.31165 79.6815 7.46211C79.7718 6.8402 79.8119 6.52924 79.9022 5.89729C79.9423 5.62646 79.8822 5.38572 79.7217 5.19513C79.5612 4.99451 79.3405 4.87414 79.0596 4.83402C78.4678 4.75377 78.1769 4.71365 77.5851 4.64343C77.3042 4.60331 77.0635 4.66349 76.8528 4.81396C76.6522 4.96442 76.5318 5.17507 76.5018 5.4459C76.4315 6.08788 76.3914 6.39884 76.3112 7.02075Z" fill="#0C3557"/>
<path d="M92.1998 7.91353C92.1195 8.33483 91.949 8.70597 91.6882 9.0069C91.4274 9.30782 91.1064 9.5285 90.7252 9.6589C91.0362 9.90968 91.2569 10.2307 91.3873 10.6118C91.5177 10.993 91.5377 11.3942 91.4575 11.8155C91.287 12.6983 91.2067 13.1396 91.0362 14.0324C90.0933 13.8518 89.6218 13.7615 88.6689 13.591C88.8294 12.7083 88.9097 12.2669 89.0701 11.3842C89.1203 11.1134 89.0701 10.8726 88.9197 10.672C88.7692 10.4714 88.5586 10.341 88.2877 10.2908C87.3348 10.1203 86.8533 10.0401 85.9004 9.87958C85.7299 10.9228 85.5493 11.966 85.3788 13.0192C84.4259 12.8588 83.9544 12.7885 83.0015 12.6381C83.4729 9.57866 83.9544 6.52927 84.4259 3.46985C86.422 3.78081 88.4181 4.11183 90.4043 4.47294C90.8456 4.55318 91.2368 4.72371 91.5578 4.98451C91.8788 5.24531 92.1095 5.5663 92.2499 5.94748C92.3904 6.32865 92.4205 6.72989 92.3402 7.16121C92.2901 7.47217 92.26 7.6126 92.1998 7.91353ZM86.5524 5.96754C86.432 6.69979 86.3718 7.0609 86.2515 7.79316C87.2144 7.95365 87.6959 8.0339 88.6589 8.20443C88.9398 8.25458 89.1805 8.20443 89.3911 8.06399C89.6018 7.92356 89.7322 7.72294 89.7823 7.46214C89.8325 7.20134 89.7823 6.97063 89.6319 6.75998C89.4814 6.54933 89.2708 6.42896 88.9899 6.3788C88.0069 6.20828 87.5254 6.12803 86.5524 5.96754Z" fill="#0C3557"/>
<path d="M37.9525 15.1558L38.1331 15.2862C37.8723 15.6774 37.4911 15.8881 37.0096 15.9182C36.5282 15.9483 36.1269 15.8179 35.7959 15.517C35.4649 15.216 35.2843 14.8248 35.2542 14.3433C35.2241 13.8619 35.3545 13.4406 35.6454 13.1095C35.9363 12.7785 36.3175 12.5879 36.799 12.5578C37.0297 12.5478 37.2504 12.5679 37.451 12.6381C37.6516 12.7083 37.8121 12.8086 37.9325 12.949L37.762 13.1296C37.6616 13.0193 37.5212 12.929 37.3607 12.8588C37.2002 12.7986 37.0197 12.7685 36.8291 12.7785C36.4178 12.8086 36.0868 12.9691 35.8561 13.26C35.6153 13.5609 35.515 13.912 35.5351 14.3132C35.5552 14.7145 35.7056 15.0555 35.9765 15.3163C36.2473 15.5771 36.5883 15.6975 37.0096 15.6774C37.4008 15.6574 37.7218 15.4768 37.9525 15.1558Z" fill="#0C3557"/>
<path d="M40.711 12.4575L40.8013 15.4166L42.3159 15.3665L42.326 15.5972L40.5505 15.6574L40.4502 12.4676L40.711 12.4575Z" fill="#0C3557"/>
<path d="M47.1609 12.7484C47.4719 13.0694 47.6324 13.4707 47.6324 13.9521C47.6324 14.4436 47.4719 14.8449 47.1609 15.1558C46.8499 15.4768 46.4487 15.6373 45.9672 15.6373C45.4958 15.6373 45.0945 15.4768 44.7836 15.1659C44.4726 14.8449 44.3121 14.4436 44.3121 13.9622C44.3121 13.4707 44.4726 13.0694 44.7836 12.7585C45.0945 12.4375 45.4958 12.277 45.9672 12.277C46.4487 12.277 46.8499 12.4375 47.1609 12.7484ZM46.9804 14.9953C47.2311 14.7145 47.3615 14.3734 47.3615 13.9622C47.3615 13.5509 47.2311 13.2098 46.9703 12.929C46.7095 12.6481 46.3785 12.5077 45.9672 12.5077C45.556 12.5077 45.2249 12.6481 44.9641 12.929C44.7134 13.2098 44.583 13.5509 44.583 13.9622C44.583 14.3734 44.7134 14.7145 44.9641 14.9953C45.2249 15.2762 45.556 15.4166 45.9672 15.4166C46.3885 15.4166 46.7296 15.2762 46.9804 14.9953Z" fill="#0C3557"/>
<path d="M51.3038 15.7276C51.0832 15.7175 50.8926 15.6774 50.7321 15.5972C50.5716 15.5169 50.4512 15.4066 50.371 15.2762C50.2907 15.1458 50.2305 15.0053 50.2004 14.8649C50.1704 14.7245 50.1503 14.574 50.1603 14.4135L50.2305 12.4174L50.4913 12.4274L50.4211 14.3934C50.4211 14.5038 50.4211 14.6041 50.4312 14.7044C50.4412 14.8047 50.4713 14.905 50.5114 14.9953C50.5515 15.0956 50.6117 15.1759 50.6719 15.2461C50.7421 15.3163 50.8224 15.3765 50.9327 15.4266C51.043 15.4768 51.1734 15.4968 51.3139 15.5069C51.4944 15.5169 51.6449 15.4868 51.7753 15.4266C51.9057 15.3664 52.006 15.2862 52.0762 15.1859C52.1464 15.0856 52.2066 14.9652 52.2367 14.8448C52.2668 14.7245 52.2869 14.5941 52.2969 14.4536L52.3671 12.4876L52.6279 12.4976L52.5577 14.4938C52.5477 14.6542 52.5276 14.8047 52.4875 14.9451C52.4474 15.0856 52.3772 15.216 52.2869 15.3464C52.1966 15.4768 52.0662 15.5671 51.9057 15.6473C51.7251 15.7075 51.5245 15.7376 51.3038 15.7276Z" fill="#0C3557"/>
<path d="M55.1455 15.8179L55.3461 12.6281L56.3592 12.6882C56.5799 12.6983 56.7906 12.7484 56.9812 12.8287C57.1818 12.9089 57.3523 13.0193 57.5028 13.1497C57.6532 13.2901 57.7736 13.4606 57.8538 13.6813C57.9341 13.8919 57.9742 14.1327 57.9542 14.3935C57.9341 14.6543 57.8739 14.885 57.7636 15.0856C57.6532 15.2862 57.5128 15.4467 57.3423 15.5671C57.1717 15.6875 56.9812 15.7677 56.7805 15.8279C56.5799 15.8781 56.3693 15.8981 56.1486 15.8881L55.1455 15.8179ZM55.5869 12.8688L55.4163 15.5972L56.0984 15.6373C56.5599 15.6674 56.941 15.5671 57.2219 15.3264C57.5028 15.0856 57.6633 14.7646 57.6833 14.3734C57.7134 13.9722 57.593 13.6412 57.3423 13.3703C57.0915 13.0995 56.7304 12.949 56.269 12.9189L55.5869 12.8688Z" fill="#0C3557"/>
</svg>
